#tb 0: 1/44100
#media_type 0: audio
#codec_id 0: pcm_s16le
#sample_rate 0: 44100
#channel_layout 0: 3
0,       4410,       4410,      710,     2840, 0x658982a3
0,       5120,       5120,     1024,     4096, 0xfd6a0070
0,       6144,       6144,     1024,     4096, 0x0b01f4cf
0,       7168,       7168,     1024,     4096, 0x6716fd93
0,       8192,       8192,      628,     2512, 0xda5ddff8
